<svg xmlns="http://www.w3.org/2000/svg" viewBox="0 0 64 64" stroke="#000" stroke-linecap="round" stroke-linejoin="round" fill="#fff" fill-rule="evenodd"><g transform="translate(12 12)"><circle cx="20" cy="20" fill="url(#C)" stroke="#c1c1c1" stroke-width=".5" r="20"/><g stroke="none"><circle cx="19.9" cy="19.9" fill="url(#D)" r="18.1"/><path d="M1.8 19.9A18.06 18.06 0 0 1 19.9 1.8 18.06 18.06 0 0 1 38 19.9 18.06 18.06 0 0 1 19.9 38 18.06 18.06 0 0 1 1.8 19.9zm1.1 0c0-9.418 7.582-17 17-17s17 7.582 17 17-7.582 17-17 17-17-7.582-17-17z" fill="url(#E)" fill-opacity=".25"/></g><g transform="translate(16 4)"><rect fill="#000" height="46" rx="1" stroke-width=".5" width="8" filter="url(#A)"/><defs><filter x="-315.625%" y="-54.89147277371718%" width="731.25%" height="209.78294554743437%" id="A"><feGaussianBlur in="SourceAlpha" stdDeviation=".8"/><feDiffuseLighting surfaceScale="30" diffuseConstant="1" lighting-color="#646464"><fePointLight x="-10000" y="-10000" z="13000"/></feDiffuseLighting><feComposite in2="SourceGraphic" operator="arithmetic" k1="0" k2="0.6" k3="0.7" k4="0"/><feComposite in2="SourceGraphic" operator="in"/></filter></defs></g><path stroke="none" d="M19 7h2v12h-2z"/></g><defs><filter x="-126.25%" y="-33.666666666666664%" width="352.5%" height="167.33333333333334%" ><feGaussianBlur in="SourceAlpha" stdDeviation="2"/><feDiffuseLighting surfaceScale="30" diffuseConstant="1" lighting-color="#646464"><fePointLight x="-10000" y="-10000" z="13000"/></feDiffuseLighting><feComposite in2="SourceGraphic" operator="arithmetic" k1="0" k2="0.6" k3="0.7" k4="0"/><feComposite in2="SourceGraphic" operator="in"/></filter><linearGradient id="C" x1="0%" y1="0%" x2="100%" y2="100%"><stop offset="0%" stop-color="#fff"/><stop offset="100%" stop-color="#c7c7c7"/></linearGradient><linearGradient id="D" x1="0%" y1="0%" x2="100%" y2="100%"><stop offset="0%" stop-color="gray"/><stop offset="100%"/></linearGradient><linearGradient id="E" x1="0%" y1="0%" x2="100%" y2="100%"><stop offset="0%" stop-color="#fff"/><stop offset="100%"/></linearGradient></defs></svg>